#format: frame checksums
#version: 1
#hash: MD5
#tb 0: 1/25
#stream#, dts,        pts, duration,     size, hash
0,          0,          0,        1,   195260, a8fdb226460f210542e7aca6c12b0874
0,          1,          1,        1,   195268, 45f098764ccba85dc641b7e401461c0a
0,          2,          2,        1,   195888, e922261672c7de46a302abad3a3fe450
0,          3,          3,        1,   195316, f8febd5af0fed000fab2943cc649975f
0,          4,          4,        1,   194636, d90985ad8afd2f969afa842510085852
0,          5,          5,        1,   195068, 909adb44bd049186a959f2803e641520
0,          6,          6,        1,   194484, 547772233e653daccc6610fcb6369da7
0,          7,          7,        1,   195224, aa82b75f6230b2e948abdfe36bce1150
0,          8,          8,        1,   194356, d67fb1208532137252701ddcbf7bfc2e
0,          9,          9,        1,   195248, 7b08698d2a911fba5231c0fef0ded4c2
0,         10,         10,        1,   194996, 570e7d9caec52975dec1c2a5dbf7cdef
0,         11,         11,        1,   195528, 7309c0531b942902c691781f2a6da1a1
0,         12,         12,        1,   193832, 40954ceb87370cac3db5c8c2d7c001d1
0,         13,         13,        1,   194852, 538382c377f0c6e9070ec0b8c5fb3e39
0,         14,         14,        1,   195756, d002a80346f3460380abb794f2d56a62
0,         15,         15,        1,   195384, 1a4f58b3c710f2fedaf746c281556b4c
0,         16,         16,        1,   195244, 218832dab1251e1dc852e6839a48b3fc
0,         17,         17,        1,   194788, a035acf428bd9565a4c3fec25dfc6f4f
0,         18,         18,        1,   194040, 6dbfeb949bdeeb055a4f7ebf78af9a85
0,         19,         19,        1,   194320, 8b4aa3f6f05aa684d9e4adfa4cdce814
0,         20,         20,        1,   193868, 98cd8b150784f6695f8dea163cecf286
0,         21,         21,        1,   193832, 27a8db33014c4bc6a8da356c4b1a3e4f
0,         22,         22,        1,   194868, f1e1460dca9127197c0a40e659924616
0,         23,         23,        1,   195236, a012f8548e92243334edcd7c8f57aa52
0,         24,         24,        1,   195512, bf3d4e968d126231baa6618d3344ef81
0,         25,         25,        1,   195504, adf4b49d8721f1b323fa518f2f0d4750
0,         26,         26,        1,   195288, aa16dd087a73a9cadc5abfc0a46ccdd4
0,         27,         27,        1,   194464, 2e3f07244999cbe949495b57adcabe69
0,         28,         28,        1,   192512, 2d6ce0d29a929e0208e1578e95c9d388
0,         29,         29,        1,   192460, 081d18cd138eead0cd4b25f54a7c7540
0,         30,         30,        1,   193692, 546b6ad28b612c2f601c7d87b265ba95
0,         31,         31,        1,   194496, b2b2ae3b1d67e332295456e6c7bdd381
0,         32,         32,        1,   194360, 0837b122d85abc4d704d40629266c58d
0,         33,         33,        1,   195912, b7a4bbe436d63394cee70d40e8a8a4cf
0,         34,         34,        1,   195556, 1b9a3eb6cda9bbd44bbdd0dc26a74252
0,         35,         35,        1,   195284, f28d780d43fa6979379dd21fcb12e906
0,         36,         36,        1,   194268, 5508989dad06fa05ee4054e759cdfd4b
0,         37,         37,        1,   194460, cb65a0e97c03b2fbe69caa6ac1660070
0,         38,         38,        1,   192708, 4125ee86cf4b8ca6d891c176662e584f
0,         39,         39,        1,   193032, 096ee24b3e35049480e28171693fbd85
0,         40,         40,        1,   193160, c01aef63b8bc792d08355ce6d68affee
0,         41,         41,        1,   193524, 57af47b7bfe132cf58eab2807996b3fe
0,         42,         42,        1,   194120, 9a4e2d72f4526815b253b3acce2dd49c
0,         43,         43,        1,   194232, e575508ffbd2a53871e817cd8947e2d2
0,         44,         44,        1,   193744, 95d8eefbfbf5a7354ecbf35835243e44
0,         45,         45,        1,   191748, de2eedebb28491e59700300635af1f90
0,         46,         46,        1,   191128, 652670f6881419be5068f2de6ac2d91e
0,         47,         47,        1,   191704, 070f46dc278230528aa6b40256a6d891
0,         48,         48,        1,   191584, e4b76fcf344e125729c339e360a14b15
0,         49,         49,        1,   191444, 6a33b374a8b48549094a24543d81d999
